<?xml version="1.0" encoding="UTF-8"?>
<svg id="uuid-a6204914-252a-4a5f-8748-8224e874d3f7" data-name="レイヤー 1" xmlns="http://www.w3.org/2000/svg" width="500" height="500" viewBox="0 0 500 500">
  <path d="M382.713,117.286c-73.177-73.178-192.245-73.177-265.425,0-73.178,73.178-73.178,192.247,0,265.425,61.315,61.315,154.841,71.259,226.603,29.823,13.884-8.017,26.96-17.96,38.823-29.823,73.178-73.178,73.178-192.247,0-265.425ZM293.39,88.067c27.561,7.335,53.605,21.785,75.181,43.361l-14.131,14.131c-19.027-19.027-41.954-31.773-66.207-38.247l5.157-19.245ZM166.116,104.783c12.846-7.417,26.474-12.986,40.495-16.717l5.157,19.246c-24.253,6.474-47.18,19.22-66.207,38.247l-14.131-14.131c10.603-10.603,22.277-19.481,34.686-26.645ZM82.316,249.999c0-14.863,1.932-29.427,5.656-43.416l19.342,5.183c-6.679,25.019-6.679,51.447,0,76.466l-19.342,5.183c-3.724-13.989-5.656-28.553-5.655-43.415ZM206.611,411.929c-27.561-7.335-53.605-21.784-75.181-43.36l14.131-14.131c19.027,19.027,41.954,31.773,66.207,38.247l-5.157,19.244ZM333.884,395.214c-12.846,7.416-26.475,12.985-40.495,16.716l-5.157-19.245c24.253-6.474,47.18-19.22,66.207-38.247l14.131,14.131c-10.603,10.603-22.277,19.482-34.686,26.645ZM340.187,340.186c-8.043,8.043-16.975,14.882-26.568,20.421-19.141,11.051-40.925,16.936-63.619,16.936-34.068,0-66.097-13.267-90.187-37.357-49.729-49.729-49.729-130.645,0-180.374,24.088-24.09,56.12-37.357,90.187-37.356,34.068,0,66.097,13.267,90.187,37.357,49.729,49.729,49.729,130.645,0,180.374ZM417.684,249.998c0,14.863-1.932,29.427-5.656,43.416l-19.342-5.183c6.679-25.019,6.679-51.447,0-76.466l19.342-5.183c3.724,13.989,5.656,28.553,5.655,43.415Z"/>
</svg>